<svg xmlns="http://www.w3.org/2000/svg" viewBox="0 0 181.78 80.55" class="w-full h-full" fill="currentColor"><g><path d="M0 47.41h4.94c3.35 0 5 1.86 5 5.28v2.1c0 3.42-1.65 5.28-5 5.28H3.35v8.69H0V47.41Zm4.94 9.61c1.07 0 1.65-.49 1.65-2.01v-2.53c0-1.52-.58-2.01-1.65-2.01H3.35v6.56h1.59ZM11.77 47.41h4.97c3.48 0 4.97 1.62 4.97 4.91v1.31c0 2.2-.7 3.6-2.2 4.21v.06c1.68.52 2.23 2.1 2.23 4.51v3.75c0 1.04.03 1.8.37 2.59h-3.42c-.18-.55-.3-.88-.3-2.62v-3.9c0-1.98-.58-2.62-2.1-2.62h-1.16v9.15h-3.36V47.41Zm4.58 9.15c1.25 0 2.01-.55 2.01-2.26v-1.65c0-1.53-.52-2.2-1.71-2.2h-1.52v6.1h1.22ZM24.06 47.41h3.36v21.35h-3.36V47.41ZM29.92 47.41h4.21l3.26 12.78h.06V47.41h2.99v21.35h-3.45l-4.03-15.59h-.06v15.59h-2.99V47.41ZM42.73 63.82V52.35c0-3.29 1.71-5.25 4.94-5.25s4.94 1.95 4.94 5.25v2.26h-3.17v-2.47c0-1.4-.67-1.98-1.68-1.98s-1.68.58-1.68 1.98v11.93c0 1.4.67 1.95 1.68 1.95s1.68-.55 1.68-1.95v-3.26h3.17v3.02c0 3.29-1.71 5.25-4.94 5.25s-4.94-1.95-4.94-5.25ZM54.63 47.41h9.15v3.05h-5.79v5.64h4.61v3.05h-4.61v6.56h5.79v3.05h-9.15V47.41ZM68.32 50.46h-3.51v-3.05h10.37v3.05h-3.51v18.3h-3.36v-18.3ZM76.43 63.7V52.48c0-3.42 1.8-5.37 5.09-5.37s5.09 1.95 5.09 5.37V63.7c0 3.42-1.8 5.37-5.09 5.37s-5.09-1.95-5.09-5.37Zm6.83.21V52.26c0-1.53-.67-2.1-1.74-2.1s-1.74.58-1.74 2.1v11.65c0 1.52.67 2.1 1.74 2.1s1.74-.58 1.74-2.1ZM88.88 47.41h4.21l3.26 12.78h.06V47.41h2.99v21.35h-3.45l-4.03-15.59h-.06v15.59h-2.99V47.41ZM106.78 47.41h3.36v8.69h3.6v-8.69h3.35v21.35h-3.35v-9.61h-3.6v9.61h-3.36V47.41ZM119.59 47.41h9.15v3.05h-5.79v5.64h4.61v3.05h-4.61v6.56h5.79v3.05h-9.15V47.41ZM130.66 47.41h3.36v21.35h-3.36V47.41ZM136.27 63.7V52.48c0-3.42 1.71-5.37 5-5.37s5 1.95 5 5.37v1.83h-3.17v-2.04c0-1.53-.67-2.1-1.74-2.1s-1.74.58-1.74 2.1v11.68c0 1.52.67 2.07 1.74 2.07s1.74-.55 1.74-2.07v-4.18h-1.68v-3.05h4.85v6.98c0 3.42-1.71 5.37-5 5.37s-5-1.95-5-5.37ZM148.44 47.41h3.36v8.69h3.6v-8.69h3.35v21.35h-3.35v-9.61h-3.6v9.61h-3.36V47.41ZM163.88 50.46h-3.51v-3.05h10.37v3.05h-3.51v18.3h-3.36v-18.3ZM171.78 63.7v-1.22h3.17v1.46c0 1.52.67 2.07 1.74 2.07s1.74-.55 1.74-2.13c0-1.77-.67-2.9-2.87-4.82-2.81-2.47-3.72-4.21-3.72-6.65 0-3.35 1.74-5.31 5-5.31s4.88 1.95 4.88 5.37v.88h-3.17v-1.1c0-1.53-.61-2.1-1.68-2.1s-1.68.58-1.68 2.04c0 1.56.7 2.68 2.9 4.61 2.81 2.47 3.69 4.18 3.69 6.83 0 3.48-1.77 5.43-5.06 5.43s-4.94-1.95-4.94-5.37ZM29.96 38.82h121.86v2.94H29.96zM68.43 29.63h44.92v2.94H68.43zM52.68 73.33h.99l3.27 4.23v-4.23h1.07v6.12h-.9l-3.37-4.35v4.35h-1.07v-6.12ZM59.59 73.33h4.53v.97h-3.46v1.57h3.07v.97h-3.07v1.64h3.51v.97H59.6v-6.12ZM65.51 73.33h1.07v6.12h-1.07v-6.12ZM71.12 79.55c-.48 0-.91-.08-1.3-.24-.39-.16-.72-.38-1-.66s-.49-.61-.64-1c-.15-.38-.23-.8-.23-1.25v-.02c0-.43.08-.83.23-1.21.16-.38.37-.72.66-1.01.28-.29.62-.52 1-.69.39-.17.81-.25 1.27-.25.27 0 .51.02.73.06.22.04.42.09.61.16s.36.16.53.26.33.22.49.35l-.68.81c-.12-.1-.24-.19-.36-.27-.12-.08-.25-.15-.38-.21s-.28-.1-.44-.13c-.16-.03-.34-.05-.53-.05-.28 0-.54.06-.78.18a2.078 2.078 0 0 0-1.05 1.16c-.1.27-.15.54-.15.83v.02c0 .32.05.61.15.88s.24.5.42.69.4.34.65.46c.25.11.54.17.85.17a2.472 2.472 0 0 0 1.48-.47v-1.15h-1.56v-.94h2.61v2.57c-.15.13-.32.25-.5.37a3.662 3.662 0 0 1-2.05.59ZM75.07 73.33h1.07v2.54h2.94v-2.54h1.07v6.12h-1.07v-2.58h-2.94v2.58h-1.07v-6.12ZM81.72 73.33h2.74c.7 0 1.24.18 1.6.54.27.27.41.61.41 1.01v.02a1.448 1.448 0 0 1-.26.87c-.08.11-.17.2-.28.28-.11.08-.22.15-.33.21.18.06.34.14.49.22.15.08.28.19.38.3.11.12.19.25.25.41.06.16.09.34.09.55v.02c0 .27-.05.52-.16.73-.11.21-.26.38-.46.52s-.44.25-.72.32c-.28.07-.59.11-.93.11h-2.83v-6.12Zm2.53 2.58c.35 0 .63-.07.84-.21.21-.14.31-.35.31-.62v-.02c0-.24-.09-.44-.27-.57s-.45-.21-.8-.21h-1.54v1.63h1.46Zm.31 2.59c.37 0 .65-.07.86-.21s.31-.35.31-.63v-.02c0-.26-.1-.46-.31-.61-.21-.14-.52-.21-.95-.21h-1.7v1.68h1.78ZM90.95 79.55a3.192 3.192 0 0 1-2.3-.93c-.28-.29-.5-.62-.66-1-.16-.38-.24-.79-.24-1.22v-.02c0-.43.08-.84.24-1.22.16-.38.38-.72.66-1.01.29-.29.62-.52 1.01-.69.39-.17.82-.25 1.29-.25a3.192 3.192 0 0 1 2.3.93c.28.29.5.62.66 1 .16.38.24.79.24 1.22v.02c0 .43-.08.84-.24 1.22-.16.38-.38.72-.66 1.01a3.125 3.125 0 0 1-2.3.94Zm.02-.99c.3 0 .58-.06.83-.17.25-.11.47-.27.65-.46.18-.2.32-.42.42-.69.1-.26.15-.54.15-.84v-.02c0-.3-.05-.58-.15-.84-.1-.26-.24-.5-.43-.69-.18-.2-.4-.35-.66-.47s-.53-.17-.84-.17-.58.06-.83.17c-.25.11-.47.27-.65.46-.18.2-.32.42-.42.69-.1.26-.15.54-.15.84v.02c0 .3.05.58.15.84.1.27.24.5.43.69.18.2.4.35.66.47s.53.17.84.17ZM95.46 73.33h2.73c.38 0 .73.05 1.02.16s.54.26.74.45c.16.17.29.36.38.59.09.22.13.47.13.73v.02c0 .25-.04.48-.11.68a1.733 1.733 0 0 1-.76.92c-.18.11-.37.19-.59.25l1.65 2.32h-1.27l-1.51-2.13h-1.35v2.13h-1.07v-6.12Zm2.64 3.03c.39 0 .69-.09.92-.28.23-.18.34-.43.34-.75v-.02c0-.33-.11-.59-.33-.76-.22-.17-.53-.26-.94-.26h-1.57v2.06h1.58ZM101.78 73.33h1.07v2.54h2.94v-2.54h1.07v6.12h-1.07v-2.58h-2.94v2.58h-1.07v-6.12ZM111.35 79.55a3.192 3.192 0 0 1-2.3-.93c-.28-.29-.5-.62-.66-1s-.24-.79-.24-1.22v-.02c0-.43.08-.84.24-1.22s.38-.72.66-1.01a3.125 3.125 0 0 1 2.3-.94 3.192 3.192 0 0 1 2.3.93c.28.29.5.62.66 1s.24.79.24 1.22v.02c0 .43-.08.84-.24 1.22s-.38.72-.66 1.01a3.125 3.125 0 0 1-2.3.94Zm.02-.99c.3 0 .58-.06.83-.17.25-.11.47-.27.65-.46.18-.2.32-.42.42-.69.1-.26.15-.54.15-.84v-.02c0-.3-.05-.58-.15-.84-.1-.26-.24-.5-.43-.69-.18-.2-.4-.35-.66-.47s-.53-.17-.84-.17-.58.06-.83.17c-.25.11-.47.27-.65.46-.18.2-.32.42-.42.69-.1.26-.15.54-.15.84v.02c0 .3.05.58.15.84s.24.5.43.69c.18.2.4.35.66.47s.53.17.84.17ZM118.78 79.55a3.192 3.192 0 0 1-2.3-.93c-.28-.29-.5-.62-.66-1s-.24-.79-.24-1.22v-.02c0-.43.08-.84.24-1.22s.38-.72.66-1.01a3.125 3.125 0 0 1 2.3-.94 3.192 3.192 0 0 1 2.3.93c.28.29.5.62.66 1s.24.79.24 1.22v.02c0 .43-.08.84-.24 1.22s-.38.72-.66 1.01a3.125 3.125 0 0 1-2.3.94Zm.02-.99c.3 0 .58-.06.83-.17.25-.11.47-.27.65-.46.18-.2.32-.42.42-.69.1-.26.15-.54.15-.84v-.02c0-.3-.05-.58-.15-.84-.1-.26-.24-.5-.43-.69-.18-.2-.4-.35-.66-.47s-.53-.17-.84-.17-.58.06-.83.17c-.25.11-.47.27-.65.46-.18.2-.32.42-.42.69-.1.26-.15.54-.15.84v.02c0 .3.05.58.15.84s.24.5.43.69c.18.2.4.35.66.47s.53.17.84.17ZM123.29 73.33h2.28c.48 0 .92.08 1.32.23.4.15.74.37 1.03.64.29.27.51.6.67.97.16.37.24.77.24 1.2v.02c0 .43-.08.83-.24 1.21-.16.37-.38.7-.67.97-.29.27-.63.49-1.03.65s-.84.24-1.32.24h-2.28v-6.12Zm2.27 5.15c.32 0 .61-.05.87-.15a1.888 1.888 0 0 0 1.1-1.09c.1-.25.15-.53.15-.83v-.02c0-.3-.05-.58-.15-.83-.1-.26-.24-.48-.43-.66-.18-.18-.41-.33-.67-.43-.26-.11-.55-.16-.87-.16h-1.21v4.18h1.21ZM49.67 77.86H19.85l-2.98 2.69v-8.33l2.98 2.7h29.82v2.94zM132.11 77.86h29.82l2.98 2.69v-8.33l-2.98 2.7h-29.82v2.94zM90.89 9.93c2.3 0 4.18 1.87 4.18 4.18s-1.87 4.18-4.18 4.18-4.18-1.87-4.18-4.18 1.87-4.18 4.18-4.18m0-2.54c-3.71 0-6.71 3.01-6.71 6.71s3.01 6.71 6.71 6.71 6.71-3.01 6.71-6.71-3.01-6.71-6.71-6.71ZM156.73 5.48c2.3 0 4.18 1.87 4.18 4.18s-1.87 4.18-4.18 4.18-4.18-1.87-4.18-4.18 1.87-4.18 4.18-4.18m0-2.54c-3.71 0-6.71 3.01-6.71 6.71s3.01 6.71 6.71 6.71 6.71-3.01 6.71-6.71-3.01-6.71-6.71-6.71ZM25.05 5.48c2.3 0 4.18 1.87 4.18 4.18s-1.87 4.18-4.18 4.18-4.18-1.87-4.18-4.18 1.87-4.18 4.18-4.18m0-2.54c-3.71 0-6.71 3.01-6.71 6.71s3.01 6.71 6.71 6.71 6.71-3.01 6.71-6.71-3.01-6.71-6.71-6.71Z"/><path d="M169.98 18.42h-30.59l2.94 2.94 5.94 5.94v3.81h-27.48v-8.62h-7.25v-9.84h-8.6C104.21 5.55 98.2.01 90.91.01S77.62 5.55 76.88 12.65h-8.6v9.84h-7.25v8.62H33.55V27.3l5.94-5.94 2.94-2.94H7.7v.06l2.88 2.88 6.29 6.29v16.5h2.94V26.44l-1.33-1.33-3.75-3.75H35.3l-3.43 3.43-1.29 1.29v7.95l33.36.01v-8.63h7.26v-9.84h8.12v-1.49c.01-6.37 5.2-11.55 11.57-11.55s11.52 5.14 11.57 11.48v1.56h8.13v9.84h7.26v8.63h33.36v-7.96l-1.29-1.29-3.43-3.43h20.57l-3.75 3.75-1.33 1.33v17.71h2.94v-16.5l6.29-6.29 2.88-2.88v-.06h-4.1Z"/></g></svg>

