<svg xmlns="http://www.w3.org/2000/svg" viewBox="0 0 311.6 251" class="w-full h-full" fill="currentColor"><g><path d="M49.97 67.43h211.66v5.1H49.97zM116.79 51.47h78.02v5.1h-78.02zM89.44 238.45h1.73l5.68 7.35v-7.35h1.85v10.63h-1.56l-5.85-7.56v7.56h-1.85v-10.63ZM101.44 238.45h7.87v1.69h-6.01v2.73h5.33v1.69h-5.33v2.84h6.09v1.69h-7.94v-10.63ZM111.72 238.45h1.85v10.63h-1.85v-10.63ZM121.47 249.26c-.83 0-1.58-.14-2.26-.42-.68-.28-1.26-.66-1.74-1.15a5.32 5.32 0 0 1-1.12-1.73c-.26-.66-.39-1.38-.39-2.16v-.03c0-.74.13-1.44.41-2.11.27-.67.65-1.25 1.14-1.75.49-.5 1.07-.9 1.74-1.19.67-.29 1.41-.44 2.21-.44a6.564 6.564 0 0 1 2.33.38c.32.12.63.27.92.45s.57.38.84.61l-1.18 1.41c-.2-.17-.41-.33-.62-.47-.21-.14-.44-.26-.67-.36-.23-.1-.49-.17-.77-.23s-.58-.08-.92-.08c-.49 0-.94.1-1.36.3-.42.2-.78.47-1.09.81-.31.34-.55.74-.73 1.19s-.27.94-.27 1.45v.03c0 .55.09 1.06.26 1.52s.42.87.73 1.2.7.6 1.14.79c.44.19.93.29 1.48.29.5 0 .98-.07 1.42-.22.44-.15.82-.34 1.14-.59v-2h-2.72v-1.62h4.53v4.46c-.26.22-.55.44-.87.64-.32.2-.66.38-1.03.53s-.77.27-1.19.36c-.43.09-.87.13-1.34.13ZM128.33 238.45h1.85v4.42h5.1v-4.42h1.85v10.63h-1.85v-4.48h-5.1v4.48h-1.85v-10.63ZM139.87 238.45h4.76c1.22 0 2.15.31 2.77.94.47.48.71 1.06.71 1.76v.03c0 .32-.04.61-.13.86s-.2.47-.33.65c-.14.19-.3.35-.48.49-.19.14-.37.26-.56.36.31.11.6.24.85.39.26.15.48.32.66.52.19.2.33.44.43.71.1.27.15.59.15.96v.03c0 .48-.09.9-.28 1.26-.19.36-.45.67-.8.91-.34.24-.76.43-1.24.55-.49.13-1.02.19-1.61.19h-4.91v-10.63Zm4.39 4.48c.61 0 1.09-.12 1.45-.36.36-.24.55-.6.55-1.09v-.03c0-.43-.16-.76-.48-.99s-.78-.36-1.38-.36h-2.68v2.82h2.54Zm.55 4.49c.64 0 1.14-.12 1.5-.36s.55-.61.55-1.09v-.03c0-.46-.18-.81-.54-1.06-.36-.25-.91-.37-1.64-.37h-2.95v2.92h3.09ZM155.9 249.26c-.82 0-1.57-.14-2.25-.43-.68-.29-1.26-.68-1.75-1.18a5.36 5.36 0 0 1-1.14-1.74 5.56 5.56 0 0 1-.41-2.12v-.03c0-.75.14-1.46.41-2.12.27-.66.66-1.25 1.15-1.75.5-.5 1.08-.9 1.76-1.19.68-.29 1.43-.44 2.25-.44s1.57.14 2.25.43c.68.29 1.26.68 1.75 1.18s.87 1.08 1.14 1.74c.27.66.41 1.37.41 2.12v.03c0 .75-.14 1.46-.41 2.12-.27.66-.66 1.25-1.15 1.75s-1.08.9-1.76 1.19c-.68.29-1.43.44-2.25.44Zm.03-1.72c.52 0 1-.1 1.44-.3.44-.2.81-.47 1.13-.8.31-.34.56-.74.73-1.19.18-.46.26-.94.26-1.46v-.03c0-.52-.09-1-.26-1.47a3.67 3.67 0 0 0-.74-1.2c-.32-.34-.7-.61-1.14-.81-.44-.2-.93-.3-1.45-.3s-1.01.1-1.44.3c-.44.2-.81.47-1.13.8-.31.34-.56.74-.73 1.19-.18.46-.26.94-.26 1.46v.03c0 .52.09 1 .26 1.47.18.46.42.86.74 1.2.32.34.7.61 1.14.81.44.2.93.3 1.45.3ZM163.74 238.45h4.74c.67 0 1.26.09 1.78.28s.95.45 1.29.78c.28.29.5.63.65 1.02.15.38.23.81.23 1.28v.03c0 .44-.06.83-.19 1.18s-.3.66-.52.93c-.22.27-.49.5-.8.68-.31.19-.65.33-1.02.43l2.87 4.02h-2.2l-2.62-3.71h-2.35v3.71h-1.85v-10.63Zm4.59 5.27c.67 0 1.2-.16 1.6-.48.4-.32.59-.75.59-1.3v-.03c0-.58-.19-1.02-.58-1.32-.39-.3-.93-.45-1.63-.45h-2.73v3.58h2.74ZM174.72 238.45h1.85v4.42h5.1v-4.42h1.85v10.63h-1.85v-4.48h-5.1v4.48h-1.85v-10.63ZM191.33 249.26c-.82 0-1.57-.14-2.25-.43-.68-.29-1.26-.68-1.75-1.18s-.87-1.08-1.14-1.74-.41-1.37-.41-2.12v-.03c0-.75.14-1.46.41-2.12s.66-1.25 1.15-1.75 1.08-.9 1.76-1.19 1.43-.44 2.25-.44 1.57.14 2.25.43c.68.29 1.26.68 1.75 1.18s.87 1.08 1.14 1.74.41 1.37.41 2.12v.03c0 .75-.14 1.46-.41 2.12s-.66 1.25-1.15 1.75-1.08.9-1.76 1.19c-.68.29-1.43.44-2.25.44Zm.03-1.72c.52 0 1-.1 1.44-.3.44-.2.81-.47 1.13-.8.31-.34.56-.74.73-1.19.18-.46.26-.94.26-1.46v-.03c0-.52-.09-1-.26-1.47a3.67 3.67 0 0 0-.74-1.2c-.32-.34-.7-.61-1.14-.81-.44-.2-.93-.3-1.45-.3s-1.01.1-1.44.3c-.44.2-.81.47-1.13.8-.31.34-.56.74-.73 1.19-.18.46-.26.94-.26 1.46v.03c0 .52.09 1 .26 1.47s.42.86.74 1.2c.32.34.7.61 1.14.81.44.2.93.3 1.45.3ZM204.24 249.26c-.82 0-1.57-.14-2.25-.43-.68-.29-1.26-.68-1.75-1.18s-.87-1.08-1.14-1.74-.41-1.37-.41-2.12v-.03c0-.75.14-1.46.41-2.12s.66-1.25 1.15-1.75 1.08-.9 1.76-1.19 1.43-.44 2.25-.44 1.57.14 2.25.43c.68.29 1.26.68 1.75 1.18s.87 1.08 1.14 1.74.41 1.37.41 2.12v.03c0 .75-.14 1.46-.41 2.12s-.66 1.25-1.15 1.75-1.08.9-1.76 1.19c-.68.29-1.43.44-2.25.44Zm.03-1.72c.52 0 1-.1 1.44-.3.44-.2.81-.47 1.13-.8.31-.34.56-.74.73-1.19.18-.46.26-.94.26-1.46v-.03c0-.52-.09-1-.26-1.47a3.67 3.67 0 0 0-.74-1.2c-.32-.34-.7-.61-1.14-.81-.44-.2-.93-.3-1.45-.3s-1.01.1-1.44.3c-.44.2-.81.47-1.13.8-.31.34-.56.74-.73 1.19-.18.46-.26.94-.26 1.46v.03c0 .52.09 1 .26 1.47s.42.86.74 1.2c.32.34.7.61 1.14.81.44.2.93.3 1.45.3ZM212.07 238.45h3.96c.83 0 1.59.13 2.29.4.69.27 1.29.64 1.79 1.12.5.48.89 1.04 1.16 1.68.27.64.41 1.34.41 2.09v.03c0 .75-.14 1.45-.41 2.1-.27.65-.66 1.21-1.16 1.69-.5.48-1.1.85-1.79 1.12s-1.46.41-2.29.41h-3.96v-10.63Zm3.95 8.94c.56 0 1.06-.09 1.52-.27.46-.18.84-.43 1.16-.75s.57-.7.74-1.14c.18-.44.27-.92.27-1.44v-.03c0-.52-.09-1-.27-1.45-.18-.45-.43-.83-.74-1.15-.32-.32-.71-.57-1.16-.76-.46-.18-.96-.27-1.52-.27h-2.1v7.26h2.1ZM84.21 246.32H32.42L27.23 251v-14.47l5.19 4.68h51.79v5.11zM227.39 246.32h51.79l5.19 4.68v-14.47l-5.19 4.68h-51.79v5.11zM155.8 17.24c4 0 7.26 3.26 7.26 7.26s-3.26 7.26-7.26 7.26-7.26-3.26-7.26-7.26 3.26-7.26 7.26-7.26m0-4.4c-6.44 0-11.66 5.22-11.66 11.66s5.22 11.66 11.66 11.66 11.66-5.22 11.66-11.66-5.22-11.66-11.66-11.66ZM270.15 9.51c4 0 7.26 3.26 7.26 7.26s-3.26 7.26-7.26 7.26-7.26-3.26-7.26-7.26 3.26-7.26 7.26-7.26m0-4.4c-6.44 0-11.66 5.22-11.66 11.66s5.22 11.66 11.66 11.66 11.66-5.22 11.66-11.66-5.22-11.66-11.66-11.66ZM41.44 9.51c4 0 7.26 3.26 7.26 7.26s-3.26 7.26-7.26 7.26-7.26-3.26-7.26-7.26 3.26-7.26 7.26-7.26m0-4.4c-6.44 0-11.66 5.22-11.66 11.66S35 28.43 41.44 28.43 53.1 23.21 53.1 16.77 47.88 5.11 41.44 5.11Z"/><path d="M293.16 31.99h-53.14l5.1 5.1 10.31 10.31v6.63H207.7V39.05h-12.6V21.96h-14.94C178.88 9.63 168.46.01 155.79.01s-23.09 9.62-24.37 21.95h-14.94v17.09h-12.6v14.98H56.15V47.4l10.31-10.31 5.1-5.1H11.32v.1l5 5 10.93 10.93v28.65h5.1V45.91l-2.3-2.3-6.52-6.52h35.72l-5.96 5.96-2.24 2.24v13.84h57.94V44.15h12.6v-17.1h14.11v-2.59c.02-11.06 9.03-20.05 20.09-20.05s20.01 8.93 20.09 19.94v2.71h14.11v17.1h12.6v14.98h57.94V45.3l-2.24-2.24-5.96-5.96h35.72l-6.52 6.52-2.3 2.3v30.77h5.1V48.04l10.93-10.93 5-5v-.1h-7.12Z"/><path d="M0 85.58h15.49c10.52 0 15.68 5.83 15.68 16.54v6.6c0 10.71-5.16 16.54-15.68 16.54h-4.97v27.25H0V85.58Zm15.49 30.12c3.35 0 5.16-1.53 5.16-6.31v-7.94c0-4.78-1.82-6.31-5.16-6.31h-4.97v20.56h4.97ZM36.91 85.58h15.58c10.9 0 15.58 5.07 15.58 15.39v4.11c0 6.88-2.2 11.28-6.88 13.19v.19c5.26 1.63 6.98 6.6 6.98 14.15v11.76c0 3.25.1 5.64 1.15 8.13H58.61c-.57-1.72-.96-2.77-.96-8.22v-12.24c0-6.21-1.82-8.22-6.6-8.22h-3.63v28.68H36.9V85.57Zm14.34 28.68c3.92 0 6.31-1.72 6.31-7.08v-5.16c0-4.78-1.63-6.88-5.35-6.88h-4.78v19.12h3.82ZM75.44 85.58h10.52v66.93H75.44V85.58ZM93.79 85.58h13.19l10.23 40.06h.19V85.58h9.37v66.93h-10.8l-12.62-48.86h-.19v48.86h-9.37V85.58ZM133.95 137.02v-35.95c0-10.33 5.35-16.45 15.49-16.45s15.49 6.12 15.49 16.45v7.08h-9.94v-7.74c0-4.4-2.1-6.21-5.26-6.21s-5.26 1.82-5.26 6.21v37.38c0 4.4 2.1 6.12 5.26 6.12s5.26-1.72 5.26-6.12v-10.23h9.94v9.47c0 10.33-5.35 16.45-15.49 16.45s-15.49-6.12-15.49-16.45ZM171.24 85.58h28.68v9.56h-18.17v17.69h14.44v9.56h-14.44v20.56h18.17v9.56h-28.68V85.58ZM214.17 95.14h-11v-9.56h32.51v9.56h-11v57.37h-10.52V95.14ZM239.6 136.64v-35.19c0-10.71 5.64-16.83 15.97-16.83s15.97 6.12 15.97 16.83v35.19c0 10.71-5.64 16.83-15.97 16.83s-15.97-6.12-15.97-16.83Zm21.42.67v-36.52c0-4.78-2.1-6.6-5.45-6.6s-5.45 1.82-5.45 6.6v36.52c0 4.78 2.1 6.6 5.45 6.6s5.45-1.82 5.45-6.6ZM278.61 85.58h13.19l10.23 40.06h.19V85.58h9.37v66.93h-10.8l-12.62-48.86h-.19v48.86h-9.37V85.58ZM38.24 163.38h10.52v27.25h11.28v-27.25h10.52v66.93H60.04v-30.12H48.76v30.12H38.24v-66.93ZM78.4 163.38h28.68v9.56H88.91v17.69h14.44v9.56H88.91v20.56h18.17v9.56H78.4v-66.93ZM113.11 163.38h10.52v66.93h-10.52v-66.93ZM130.7 214.44v-35.19c0-10.71 5.35-16.83 15.68-16.83s15.68 6.12 15.68 16.83v5.74h-9.94v-6.41c0-4.78-2.1-6.6-5.45-6.6s-5.45 1.82-5.45 6.6v36.62c0 4.78 2.1 6.5 5.45 6.5s5.45-1.72 5.45-6.5v-13.1h-5.26v-9.56h15.2v21.89c0 10.71-5.35 16.83-15.68 16.83s-15.68-6.12-15.68-16.83ZM168.85 163.38h10.52v27.25h11.28v-27.25h10.52v66.93h-10.52v-30.12h-11.28v30.12h-10.52v-66.93ZM217.23 172.94h-11v-9.56h32.51v9.56h-10.99v57.37h-10.52v-57.37ZM241.99 214.44v-3.82h9.94v4.59c0 4.78 2.1 6.5 5.45 6.5s5.45-1.72 5.45-6.69c0-5.55-2.1-9.08-8.99-15.11-8.8-7.74-11.66-13.19-11.66-20.84 0-10.52 5.45-16.64 15.68-16.64s15.3 6.12 15.3 16.83v2.77h-9.94v-3.44c0-4.78-1.91-6.6-5.26-6.6s-5.26 1.82-5.26 6.41c0 4.88 2.2 8.41 9.08 14.44 8.8 7.74 11.57 13.1 11.57 21.42 0 10.9-5.55 17.02-15.87 17.02s-15.49-6.12-15.49-16.83Z"/></g></svg>
